# xmcd
#
# Track frame offsets: 
#        150
#        20416
#        34154
#        59361
#        84245
#        103097
#        134166
#        155929
#        171681
#        191615
#        211538
#        232451
#
# Disc length: 3431 seconds
#
# Revision: 0
# Processed by: cddbd v1.5.2PL0 Copyright (c) Steve Scherf et al.
# Submitted via: ExactAudioCopy v0.95b4
#
DISCID=b20d650c
DTITLE=Lynx Quicksilver - The Wound Heals
DYEAR=2007
DGENRE=Blues
TTITLE0=The Wound Heals
TTITLE1=The Alienation Rag
TTITLE2=If You Don't Let Go
TTITLE3=Shy As A Butterfly
TTITLE4=My Dog Thinks I Am
TTITLE5=If Wishes Were Horses
TTITLE6=Pearls Before Swine
TTITLE7=Cupid's Stupid
TTITLE8=Ghost In A Bag
TTITLE9=Your Smile
TTITLE10=Between Hello And Goodbye
TTITLE11=Tears On My Glasses
EXTD=
EXTT0=
EXTT1=
EXTT2=
EXTT3=
EXTT4=
EXTT5=
EXTT6=
EXTT7=
EXTT8=
EXTT9=
EXTT10=
EXTT11=
PLAYORDER=
